# xmcd CD database file
#
# Track frame offsets:
#	150
#	12912
#	24785
#	37047
#	49165
#	62457
#	74415
#	86506
#	99925
#	112837
#	128369
#	144371
#	158804
#	174307
#	186336
#	198099
#	211290
#	226056
#	235402
#	249528
#	265050
#	279808
#	293016
#	306704
#	319247
#	332598
#
# Disc length: 4590 seconds
#
# Revision: 0
# Processed by: cddbd v1.5.2PL0 Copyright (c) Steve Scherf et al.
# Submitted via: CDex 1.70beta2
#
DISCID=5b11ec1a
DTITLE=Various Artist - Jump The Channel volume2
DYEAR=2012
DGENRE=Jazz
TTITLE0=Leo Marjane - Bei Mir Bist Du Schoen - 1938
TTITLE1=Ted Heath and Lita Roza - Blacksmith Blues
TTITLE2=Alix Combelle Et Son Orchestre - Ca S'Fait, Ca S'Fait pas
TTITLE3=Nat Gonella and his Orchestra - Dont let your love go wrong
TTITLE4=Dink Johnson - Exactly Like You
TTITLE5=Maurice Moufflard et son Orchestre - Hamps Boogie Woogie
TTITLE6=Sid Phillips Trio - I Never Knew
TTITLE7=Harry Parry Radio Rhythm Club Sextet - It Don't Count
TTITLE8=Ken "Snakehips" Johnson and his West Indian Dance Band - It Was a Lover and His Lass
TTITLE9=Johnny Hess - J'ai Saute la Barriere
TTITLE10=Lauderic Caton Quartet - The Jumping Jive
TTITLE11=Jerry Mengo Et son Orchestre - Les Oranges de Jaffa
TTITLE12=L'Orchestre d'Alex Renard - Mon Homme
TTITLE13=Dany Kaye - Night And Day
TTITLE14=Orchester Jack Hylton and The Swingtettes - One two buttom your shoe (1935)
TTITLE15=Amie Barelli et son Orchestre - Open The Door Richard !
TTITLE16=Jacky Jern - Pas de Rhythm
TTITLE17=Orchester Anson Weeks /Rhythmsters Trio - Rain rain go away
TTITLE18=L'Orchestre de Christain Bellest - Rockin' The Blues
TTITLE19=L'Orchestre des Folies Bergeres - Rythme et Swing
TTITLE20=Tony Murena - Rythme et Swing
TTITLE21=Ken Johnson "Snakehips" and His West Indian Dance Band - The Sheik of Araby
TTITLE22=Tony Proteau et son Orchestre - Shoo Fly Pie
TTITLE23=Frank Deniz and His Spirits Of Rythm - Soft Winds
TTITLE24=Leslie Hutchinson "Jiver" and His Coloured Orchestra - Swing Low, Sweet Chariot
TTITLE25=George Shearing and his lads - The Two Little Squirrels
EXTD=YEAR: 2012
EXTT0=
EXTT1=
EXTT2=
EXTT3=
EXTT4=
EXTT5=
EXTT6=
EXTT7=
EXTT8=
EXTT9=
EXTT10=
EXTT11=
EXTT12=
EXTT13=
EXTT14=
EXTT15=
EXTT16=
EXTT17=
EXTT18=
EXTT19=
EXTT20=
EXTT21=
EXTT22=
EXTT23=
EXTT24=
EXTT25=
PLAYORDER=
